<svg width="757" height="650" viewBox="0 0 757 650" fill="none" xmlns="http://www.w3.org/2000/svg">
<g opacity="0.21">
<rect width="141.262" height="401.742" rx="70.6312" transform="matrix(-0.258819 -0.965926 -0.965926 0.258819 520.1 136.449)" fill="#3D6EF4"/>
<rect width="141.262" height="652.548" rx="70.6312" transform="matrix(-0.258819 -0.965926 -0.965926 0.258819 667.111 243.245)" fill="#3D6EF4"/>
<rect width="141.262" height="657.495" rx="70.6312" transform="matrix(-0.258819 -0.965926 -0.965926 0.258819 756.331 364.645)" fill="#3D6EF4"/>
<rect width="141.262" height="462.64" rx="70.6312" transform="matrix(-0.258819 -0.965926 -0.965926 0.258819 686.432 529.561)" fill="#3D6EF4"/>
</g>
<rect width="134.039" height="381.2" rx="67.0195" transform="matrix(-0.258819 -0.965926 -0.965926 0.258819 512.849 146.072)" fill="white"/>
<rect width="134.039" height="619.181" rx="67.0195" transform="matrix(-0.258819 -0.965926 -0.965926 0.258819 652.342 247.407)" fill="white"/>
<rect width="134.039" height="623.874" rx="67.0195" transform="matrix(-0.258819 -0.965926 -0.965926 0.258819 737 362.6)" fill="white"/>
<rect width="134.039" height="438.984" rx="67.0195" transform="matrix(-0.258819 -0.965926 -0.965926 0.258819 670.675 519.083)" fill="white"/>
</svg>
