<svg width="1140" height="301" viewBox="0 0 1140 301" fill="none" xmlns="http://www.w3.org/2000/svg">
<g opacity="0.3">
<mask id="mask0_0_179" style="mask-type:alpha" maskUnits="userSpaceOnUse" x="0" y="0" width="1140" height="301">
<rect width="1140" height="301" rx="30" fill="#6974EF"/>
</mask>
<g mask="url(#mask0_0_179)">
<path d="M29.6874 309.5C245.812 24.5 765.542 200 931.396 -70M37.6041 319.5C253.729 34.5 773.458 210 939.312 -60M45.5208 329.5C261.646 44.5 781.375 220 947.229 -50M53.4374 339.5C269.562 54.5 789.292 230 955.146 -40M61.3541 349.5C277.479 64.5 797.208 240 963.062 -30M69.2708 359.5C285.396 74.5 805.125 250 970.979 -20M77.1874 369.5C293.312 84.5 813.042 260 978.896 -10" stroke="#F64D5E"/>
<path d="M820.958 302.703C898.107 201.543 1083.63 263.836 1142.84 168M823.784 306.253C900.933 205.092 1086.46 267.386 1145.66 171.549M826.61 309.802C903.759 208.642 1089.28 270.935 1148.49 175.099M829.436 313.352C906.585 212.191 1092.11 274.485 1151.31 178.648M832.262 316.901C909.411 215.741 1094.94 278.034 1154.14 182.198M835.088 320.451C912.237 219.29 1097.76 281.584 1156.97 185.747M837.914 324C915.063 222.84 1100.59 285.133 1159.79 189.297" stroke="#F64D5E"/>
</g>
</g>
</svg>
